<?xml version="1.0" standalone="no"?>
<!DOCTYPE svg PUBLIC "-//W3C//DTD SVG 20010904//EN"
 "http://www.w3.org/TR/2001/REC-SVG-20010904/DTD/svg10.dtd">
<svg version="1.0" xmlns="http://www.w3.org/2000/svg"
 width="1708.000000pt" height="1708.000000pt" viewBox="0 0 1708.000000 1708.000000"
 preserveAspectRatio="xMidYMid meet">
<metadata>
Created by potrace 1.11, written by Peter Selinger 2001-2013
</metadata>
<g transform="translate(0.000000,1708.000000) scale(0.100000,-0.100000)"
fill="#000000" stroke="none">
<path d="M10889 11550 c-1 -3 -2 -1352 -3 -2997 -1 -1988 2 -2994 9 -2996 6
-1 336 -2 735 -2 l725 1 0 837 c0 460 1 837 2 837 3 0 214 -284 267 -360 22
-30 45 -59 51 -65 6 -5 17 -20 24 -33 7 -13 19 -31 26 -40 27 -32 145 -193
145 -198 0 -2 8 -13 18 -23 9 -10 42 -54 72 -96 30 -43 67 -92 83 -110 15 -18
27 -37 27 -43 0 -6 3 -12 8 -14 4 -1 39 -46 77 -98 38 -52 73 -99 77 -105 4
-5 32 -44 62 -85 30 -41 59 -79 63 -85 4 -5 57 -77 117 -160 60 -82 111 -152
113 -155 7 -8 1963 -6 1963 2 0 4 -10 18 -22 30 -13 13 -57 62 -98 108 -41 47
-86 97 -100 111 -14 15 -54 59 -90 100 -36 40 -74 83 -85 95 -12 12 -50 55
-85 94 -36 40 -76 85 -90 100 -14 15 -57 63 -95 106 -39 43 -79 88 -90 99 -11
12 -51 57 -90 100 -38 44 -83 94 -100 111 -16 18 -57 62 -90 100 -33 37 -69
77 -80 88 -11 12 -54 59 -95 106 -41 47 -84 94 -95 106 -24 25 -161 176 -188
207 -10 12 -51 58 -90 101 -40 44 -79 87 -87 97 -9 9 -49 54 -90 99 -41 45
-81 90 -90 99 -8 10 -44 51 -80 91 -36 40 -67 77 -69 82 -2 6 25 37 60 70 65
62 392 375 504 483 34 33 142 137 240 230 98 94 211 202 251 240 39 39 145
140 234 225 89 85 199 191 245 235 46 45 129 124 185 177 55 53 97 98 93 100
-5 2 -400 3 -878 3 l-871 -1 -47 -48 c-26 -27 -47 -50 -47 -51 0 -1 -39 -42
-87 -92 -49 -50 -145 -151 -215 -224 -69 -74 -154 -163 -188 -199 -35 -36
-133 -139 -219 -229 -86 -90 -200 -209 -253 -265 -53 -55 -119 -125 -147 -155
-28 -30 -51 -48 -52 -40 0 8 -1 754 -2 1659 l-2 1645 -732 0 c-403 0 -734 -2
-734 -5z"/>
<path d="M9970 9623 c-26 -3 -153 -23 -180 -28 -83 -17 -285 -100 -322 -133
-10 -8 -18 -12 -18 -8 0 4 -10 -2 -22 -14 -12 -11 -27 -20 -34 -20 -7 0 -14
-3 -16 -7 -1 -5 -25 -26 -53 -47 -87 -69 -203 -191 -265 -281 -35 -50 -56 -75
-62 -75 -2 0 -3 116 -2 257 0 142 -1 263 -3 268 -2 7 -245 10 -736 10 l-732 0
0 -1995 0 -1995 733 -1 c403 -1 734 2 737 6 3 4 4 306 4 671 0 365 0 680 1
699 1 19 2 41 1 48 -2 19 -2 33 -2 92 1 30 0 62 0 70 0 8 0 38 0 65 0 28 0 57
0 65 -1 8 1 78 4 155 6 146 24 256 58 347 11 29 21 58 22 63 2 6 7 17 12 25 5
8 20 35 33 59 64 121 212 259 341 318 54 25 169 70 184 72 4 1 8 1 10 2 7 2
36 8 67 13 19 4 42 9 50 11 59 18 381 19 465 2 17 -4 48 -9 71 -12 22 -3 54
-9 71 -14 20 -6 30 -5 30 3 1 28 14 312 18 406 3 58 7 146 10 195 2 50 7 149
9 220 11 259 18 400 22 406 9 16 -156 64 -256 75 -64 7 -214 11 -250 7z"/>
<path d="M9 9549 c-6 -3 -4 -20 5 -40 16 -39 136 -387 141 -409 2 -8 4 -16 5
-17 2 -2 3 -6 5 -10 1 -5 5 -15 8 -23 9 -22 48 -133 52 -150 4 -15 127 -371
138 -400 8 -21 108 -313 111 -325 2 -5 6 -17 9 -25 3 -8 20 -58 37 -110 17
-52 35 -104 40 -115 5 -11 22 -60 39 -110 16 -49 49 -144 72 -210 23 -66 42
-124 44 -130 1 -5 5 -17 8 -25 30 -78 67 -189 67 -201 0 -8 4 -19 8 -25 5 -5
19 -40 31 -79 12 -38 25 -77 28 -85 3 -8 7 -19 9 -25 1 -5 21 -62 44 -125 22
-63 43 -122 45 -130 4 -15 140 -412 188 -547 14 -40 23 -73 20 -73 -3 0 -1 -6
4 -12 6 -7 22 -51 38 -98 15 -47 31 -94 35 -105 12 -30 18 -46 79 -225 l56
-165 777 -2 777 -2 37 112 c21 62 39 114 39 117 1 7 55 171 62 190 4 8 7 18 8
23 2 4 3 8 5 10 1 1 3 10 5 20 2 10 7 26 11 35 4 9 8 19 9 22 1 3 14 43 29 90
15 47 29 90 30 95 2 6 6 17 9 25 3 8 54 161 113 340 58 179 119 362 135 408
16 46 31 93 34 105 3 12 26 83 51 157 26 74 49 148 53 163 3 15 10 29 15 30 7
2 56 -114 56 -133 0 -5 106 -332 117 -360 3 -8 7 -19 9 -25 3 -16 94 -288 101
-305 3 -8 8 -21 10 -27 1 -7 5 -19 6 -25 2 -7 7 -20 10 -28 8 -20 170 -512
173 -525 1 -5 19 -59 39 -120 20 -60 38 -114 40 -120 6 -23 10 -35 50 -150
l42 -120 780 -1 780 -1 31 91 c17 50 51 150 76 221 90 261 198 580 200 590 1
6 4 15 7 20 6 9 49 134 56 160 6 26 141 414 146 422 3 5 8 20 11 34 3 13 14
49 25 79 25 70 214 621 247 720 13 41 27 82 31 90 3 8 7 20 9 25 3 11 188 552
197 575 3 8 29 83 57 165 116 345 191 565 219 643 16 45 27 82 24 82 -3 0 -1
6 5 13 6 7 12 25 14 41 l3 30 -831 0 -831 1 -28 -120 c-15 -66 -27 -121 -27
-122 0 -1 -7 -28 -15 -60 -7 -32 -16 -69 -19 -83 -3 -14 -12 -52 -21 -85 -8
-33 -17 -69 -19 -80 -2 -11 -19 -87 -38 -170 -20 -82 -51 -217 -70 -300 -19
-82 -40 -170 -46 -195 -6 -25 -12 -54 -15 -65 -14 -68 -98 -433 -103 -445 -6
-19 -9 -28 -15 -65 -3 -16 -14 -68 -26 -115 -21 -83 -27 -108 -37 -160 -3 -14
-18 -79 -34 -145 -16 -66 -31 -133 -34 -150 -9 -46 -24 -91 -26 -77 -4 22 -5
26 -35 112 -17 47 -30 90 -30 95 -1 9 -67 220 -83 265 -3 8 -6 17 -7 20 -1 3
-4 12 -7 20 -9 25 -82 255 -83 260 -1 7 -56 181 -63 200 -3 8 -6 17 -7 20 0 3
-6 21 -12 40 -7 19 -35 109 -63 200 -28 91 -54 172 -57 180 -3 8 -7 20 -8 25
-5 19 -37 120 -47 147 -6 15 -10 30 -9 33 0 3 -6 22 -13 42 -14 36 -116 355
-121 378 -1 5 -5 17 -8 25 -3 8 -16 47 -28 85 -12 39 -38 119 -58 180 l-36
109 -557 1 -558 0 -9 -25 c-17 -47 -48 -145 -66 -205 -9 -33 -25 -85 -35 -115
-23 -70 -67 -208 -120 -380 -23 -74 -59 -189 -80 -255 -39 -123 -69 -220 -135
-430 -20 -66 -39 -127 -42 -135 -3 -8 -8 -21 -10 -27 -1 -7 -5 -19 -6 -25 -2
-7 -7 -20 -10 -28 -6 -16 -97 -308 -101 -325 -3 -11 -80 -254 -103 -325 -8
-25 -16 -49 -17 -55 -13 -53 -29 -95 -39 -101 -6 -4 -9 -4 -6 0 4 4 0 28 -7
54 -8 26 -17 60 -20 75 -2 15 -11 56 -20 90 -8 34 -17 71 -19 82 -3 11 -16 70
-31 130 -14 61 -27 119 -29 130 -2 11 -15 70 -30 130 -15 61 -29 119 -31 130
-2 11 -6 29 -9 40 -3 11 -14 61 -26 110 -11 50 -24 106 -29 125 -5 19 -11 46
-14 60 -3 14 -10 46 -16 71 -6 26 -13 53 -14 60 -2 8 -6 25 -9 39 -26 105 -57
241 -62 269 -3 19 -9 39 -12 44 -3 5 -7 21 -8 36 -2 14 -12 64 -24 111 -12 47
-23 94 -26 105 -11 51 -36 162 -39 180 -2 11 -9 32 -14 46 -6 15 -9 29 -6 31
2 3 -2 24 -10 46 -9 23 -14 42 -12 42 2 0 -6 40 -19 90 -12 49 -20 91 -17 95
3 3 -1 5 -9 6 -67 4 -1663 3 -1670 -2z"/>
<path d="M16155 7050 c-92 -19 -186 -57 -261 -105 -66 -42 -181 -154 -224
-218 -42 -64 -106 -201 -115 -252 -5 -22 -9 -44 -11 -50 -16 -66 -20 -180 -9
-268 19 -156 114 -339 236 -457 110 -107 254 -182 402 -209 57 -10 230 -8 275
3 12 3 31 8 42 11 65 14 196 75 252 117 45 34 122 102 127 111 1 4 11 16 21
25 51 50 125 184 151 273 7 24 15 49 19 54 10 16 14 72 13 195 -1 119 -1 125
-29 219 -44 152 -135 286 -275 403 -46 39 -209 125 -250 133 -26 5 -61 12 -99
21 -55 12 -189 9 -265 -6z"/>
</g>
</svg>
