<svg xmlns="http://www.w3.org/2000/svg" width="426.8" height="151.8" viewBox="0 0 426.8 151.8">
  <g fill="#fff">
    <path d="M137 50l-14.2 61.1L103.4 50h-28l-19.2 61.1L42 50H0l34.4 99.9h38.8l16.2-49 16.2 49h39L178.8 50H137zm114.4-1.8c-11 0-20.4 5.9-26.6 15.8V50.2H188v99.7h36.9V104c0-15.7 10.2-23.9 25.2-23.9 4.2 0 8 .6 10.2 1.2l1.4-31.1c-2.1-1.2-6.3-2-10.3-2zm137.4 101.7L338.4 94l45.8-44h-44l-31.4 33V0H272v149.9h36.9V108l30.8 41.9h49.1z"/>
    <path d="M407.3 151.8c10.7 0 19.5-9 19.5-19.6 0-11-8.9-20-19.5-20-10.5 0-19.3 9-19.3 20 0 10.6 8.8 19.6 19.3 19.6z"/>
  </g>
</svg>